# xmcd CD database file
#
# Track frame offsets:
#	150
#	22625
#	53765
#	78438
#	107718
#	135143
#	166155
#	190978
#	227180
#	255233
#
# Disc length: 3565 seconds
#
# Revision: 1
# Processed by: cddbd v1.5.1PL0 Copyright (c) Steve Scherf et al.
# Submitted via: CDex 1.51
#
DISCID=690deb0a
DTITLE=Bob James Trio - Take It From The Top
DYEAR=2003
DGENRE=Jazz
TTITLE0=Billy Boy
TTITLE1=Straighten Up And Fly Right
TTITLE2=Downtown
TTITLE3=Tenderly
TTITLE4=nardis
TTITLE5=Poinciana
TTITLE6=Caravan
TTITLE7=Soul Eyes
TTITLE8=Django
TTITLE9=Schwammerl
EXTD=YEAR: 2003
EXTT0=
EXTT1=
EXTT2=
EXTT3=
EXTT4=
EXTT5=
EXTT6=
EXTT7=
EXTT8=
EXTT9=
PLAYORDER=
